<?xml version="1.0" encoding="UTF-8"?>
<svg width="786px" height="563px" viewBox="0 0 786 563" version="1.1" xmlns="http://www.w3.org/2000/svg" xmlns:xlink="http://www.w3.org/1999/xlink">
    <!-- Generator: Sketch 64 (93537) - https://sketch.com -->
    <title>1</title>
    <desc>Created with Sketch.</desc>
    <g id="Gadgets-illustrations" stroke="none" stroke-width="1" fill="none" fill-rule="evenodd">
        <g transform="translate(-708.000000, -1027.000000)" fill="#000000" fill-rule="nonzero" id="1">
            <g transform="translate(708.000000, 1027.000000)">
                <path d="M405.052377,0.702192186 C434.041316,0.653694843 452.229307,0.726622148 472.799205,1.10401809 C481.301286,1.26000579 489.318907,1.46317023 496.83714,1.71887086 C509.25612,2.14124953 527.205686,3.26776296 549.262065,4.93882096 C554.578566,5.34161517 560.077052,5.77194546 565.723837,6.22609193 C578.45911,7.25033473 591.364619,8.34762406 603.778101,9.44491174 C608.12288,9.82896774 612.095989,10.1856067 615.614589,10.5056947 C616.84638,10.6177511 617.933463,10.717243 618.865483,10.8030288 L618.984331,10.8139801 C619.386086,10.8510097 619.443044,10.8564256 620.126534,10.9214161 C620.858421,11.0117904 622.166692,11.2098589 623.969978,11.5404038 C626.939971,12.0848075 630.240394,12.8112764 633.790161,13.7450841 C643.931988,16.4130104 654.077518,20.2148062 663.578829,25.3666347 C671.732996,29.7880108 679.042588,35.0213585 685.286181,41.1440574 C696.967537,52.5992287 708.785928,75.5940584 720.761371,107.23102 C728.78865,128.437641 735.056899,148.162516 742.258039,172.876524 C757.417049,224.901607 779.719112,332.374397 783.175872,372.103325 C783.467261,375.452296 783.732151,378.89134 783.971451,382.413701 C785.589939,406.236876 785.946166,431.325792 785.590937,453.339891 C785.565951,454.888321 785.539163,456.259222 785.477884,458.789936 C785.342914,516.21268 738.669335,562.764594 681.237767,562.764594 L681.237767,562.764594 L677.946872,562.764594 C644.072475,562.764577 604.578911,535.276781 588.703834,500.127684 C588.308495,499.232947 587.775592,498.04163 587.086137,496.51575 C585.10979,492.141767 582.277907,485.970259 578.438008,477.695863 C575.633554,471.652694 570.786095,462.658934 564.42512,451.540699 C563.780691,450.414313 563.1231,449.270331 562.453159,448.109989 C558.317553,440.947098 553.884076,433.456184 549.450295,426.090031 C547.89827,423.511542 546.457234,421.133106 545.164288,419.011137 C544.712033,418.268901 544.310691,417.611898 543.526844,416.332704 C536.819054,405.234353 520.439391,395.86109 507.469747,395.698574 L507.469747,395.698574 L473.610877,395.273993 L392.108651,395.273985 L312.252912,395.273679 L278.343925,395.698574 C265.374281,395.86109 248.994618,405.234353 242.270751,416.359072 C242.197991,416.477385 242.055787,416.709101 241.848775,417.047176 C241.502981,417.611898 241.101639,418.268901 240.649384,419.011137 C239.356438,421.133106 237.915402,423.511542 236.363377,426.090031 C231.929596,433.456184 227.496119,440.947098 223.360513,448.109989 C222.690572,449.270331 222.032981,450.414313 221.388552,451.540699 C215.027577,462.658934 210.180118,471.652694 207.375664,477.695863 C203.535765,485.970259 200.703881,492.141767 198.727535,496.51575 C198.03808,498.04163 197.505177,499.232947 197.109838,500.127684 C196.876395,500.656016 196.742242,500.964355 196.654063,501.168764 C181.234761,535.276781 141.741197,562.764577 107.866798,562.764594 L107.866798,562.764594 L104.575905,562.764594 C47.1443373,562.764594 0.470757947,516.21268 0.335788086,458.789936 L0.336235145,458.865867 L0.336078471,458.847417 C0.334573811,458.793139 0.332552583,458.718181 0.330030895,458.621755 L0.327342985,458.518144 C0.319477419,458.212662 0.310729843,457.85217 0.301322267,457.438437 C0.27450895,456.259222 0.247720891,454.888321 0.222734734,453.339891 C-0.13249448,431.325792 0.223733083,406.236876 1.84222047,382.413701 C2.08152092,378.89134 2.34641066,375.452296 2.63780005,372.103325 C6.09455984,332.374397 28.3966227,224.901607 43.5556328,172.876524 C50.7567726,148.162516 57.0250221,128.437641 65.0523005,107.23102 C77.027744,75.5940584 88.8461348,52.5992287 100.527491,41.1440574 C106.771084,35.0213585 114.080676,29.7880108 122.234843,25.3666347 C131.736154,20.2148062 141.881684,16.4130104 152.023511,13.7450841 C155.573278,12.8112764 158.873701,12.0848075 161.843694,11.5404038 C163.64698,11.2098589 164.955251,11.0117904 165.687138,10.9214161 L165.687138,10.9214161 L165.818617,10.907383 C165.870408,10.9027196 165.870408,10.9027196 166.120747,10.8802596 C166.467624,10.8491882 166.467624,10.8491882 167.002104,10.8014681 C167.968553,10.7152579 169.09522,10.6152708 170.371161,10.5026543 C174.016011,10.1809544 178.126584,9.82251448 182.615337,9.43651599 C195.44027,8.33366949 208.726853,7.23081901 221.775161,6.20139294 C226.886763,5.79812099 231.871639,5.41339142 236.704859,5.04982192 C259.236238,3.35494316 277.480452,2.19144933 289.931362,1.7194307 C298.340301,1.40064466 315.7171,1.15732528 339.449025,0.977873472 C351.448555,0.887137581 364.304011,0.818702855 377.1593,0.769450994 C381.658521,0.752213343 385.836407,0.738604505 389.585896,0.728235545 C390.898316,0.724606136 392.063477,0.721640895 393.067996,0.719291219 C393.37684,0.718579906 393.514103,0.718263767 393.637147,0.717988434 C396.293547,0.716559404 397.390086,0.715010895 405.052377,0.702192186 Z M472.652454,9.10267198 C452.150946,8.72653078 434.004072,8.65376835 405.065761,8.70218099 C399.669334,8.711209 397.527167,8.7146511 395.803355,8.71589827 L394.202717,8.71678497 C394.189054,8.71681366 394.173158,8.7168471 394.154415,8.71688658 L393.728257,8.71780564 C393.580159,8.71813285 393.456796,8.71841697 393.086709,8.71926933 C392.083308,8.72161639 390.919282,8.72457875 389.608019,8.72820495 C385.861273,8.73856633 381.686211,8.75216597 377.18995,8.76939228 C364.343862,8.81860889 351.497939,8.88699287 339.509517,8.97764477 C315.866724,9.15642259 298.530795,9.39916968 290.234427,9.71368811 C277.907167,10.1810191 259.744483,11.3393135 237.304948,13.0272835 C232.481771,13.3900975 227.506554,13.7740816 222.404353,14.1766119 C209.376479,15.2044258 196.108152,16.305761 183.300746,17.4071003 C178.81818,17.7925668 174.713565,18.1504872 171.074519,18.4716748 C169.801096,18.584069 168.676908,18.6838361 167.712906,18.769828 C167.180165,18.817393 167.180165,18.817393 166.834962,18.8483143 C166.728379,18.8578768 166.667474,18.8633411 166.628719,18.8668194 L166.624235,18.8658672 L166.612185,18.8681367 C166.487164,18.8843385 166.276526,18.9135536 165.984636,18.9570363 L165.831941,18.9799725 C165.102522,19.0904045 164.250445,19.2325302 163.286073,19.4093008 C160.508977,19.9183464 157.405501,20.6014644 154.058761,21.4818635 C144.496282,23.9973856 134.937507,27.5793092 126.048133,32.3993315 C118.517476,36.4826258 111.809382,41.2853273 106.128776,46.8559407 C95.5435125,57.2362424 84.1097008,79.4828036 72.5342225,110.063129 C64.5989994,131.026557 58.3831776,150.586453 51.2362267,175.114487 C36.2130973,226.673233 14.0136738,333.651408 10.6076889,372.796774 C10.3207874,376.094165 10.0597716,379.482914 9.82382211,382.955951 C8.22307988,406.517928 7.86976826,431.401476 8.2216934,453.210816 C8.24639104,454.741367 8.27283562,456.09469 8.29925495,457.256578 C8.3084788,457.66223 8.31703183,458.014706 8.32469245,458.312228 C8.32925227,458.489322 8.3325257,458.609724 8.33414373,458.666237 L8.33414373,458.666237 L8.33576599,458.771133 C8.46036706,511.782488 51.5548093,554.764594 104.575905,554.764594 L104.575905,554.764594 L107.866795,554.764594 C126.302551,554.764585 146.949503,545.49904 163.545649,531.30148 C161.585528,529.187748 159.413019,526.77108 157.07765,524.081402 C150.06743,516.007633 143.015463,507.131386 136.372256,497.719482 C123.915166,480.070636 109.962697,448.033528 92.1121058,401.019603 C76.8912647,360.931773 62.4526931,294.367305 60.7444467,258.215762 C58.8005247,217.076626 59.0211208,193.490412 62.2762084,171.017513 C64.8854209,153.003691 66.1817698,145.521648 69.1783196,134.297566 C70.8934353,127.873312 72.8441084,122.005156 75.0750346,116.73653 C82.3826156,99.4787172 93.5119933,82.226174 107.65552,69.7062595 C121.848705,57.1423868 141.264886,48.3297017 158.463641,43.979376 C166.117514,42.043373 174.448364,40.4850657 183.632734,39.2059585 C190.726391,38.2180251 198.162931,37.4147978 206.710015,36.6692395 C210.057022,36.3772815 213.468943,36.1022007 217.676143,35.7798773 C219.075852,35.6726424 225.295417,35.2038261 227.575874,35.0292273 L227.965713,34.999284 C230.493581,34.8042674 232.591375,34.6356988 234.534869,34.4697326 C248.498933,33.2772605 274.038824,32.3443001 307.845796,31.6368467 C326.402227,31.2485301 346.282919,30.9527478 366.163442,30.7371314 C373.121494,30.6616671 379.58258,30.6016129 385.381096,30.5554253 C387.410677,30.5392588 389.212502,30.5259802 390.765871,30.5153966 C391.309613,30.5116919 391.783478,30.5085886 392.184877,30.5060625 C392.409378,30.5046722 392.509156,30.5040543 392.567764,30.5036968 L392.672153,30.503077 C393.546479,30.5137986 395.897021,30.5350997 398.487155,30.5604433 C402.965921,30.6042667 408.014996,30.6580334 413.488136,30.721624 C428.910226,30.9008083 444.813855,31.1236241 460.325601,31.3921531 C503.532794,32.1401273 535.597034,33.0937184 550.260936,34.2757481 L551.136931,34.3484029 C584.61987,37.2077045 615.233755,41.4441385 626.711892,44.3008764 C644.255843,48.6673055 660.040465,55.2477927 676.000354,67.673965 C690.267195,78.7819508 701.604971,94.6920942 710.074905,115.530641 C711.551717,119.164037 712.912892,122.977582 714.16794,126.961988 C718.472742,140.628452 720.682266,152.163566 723.395592,170.896183 C726.65068,193.369083 726.871276,216.955296 724.927354,258.094432 C723.219108,294.245975 708.780536,360.810443 693.559695,400.898274 C675.709104,447.912198 661.756635,479.949306 649.299544,497.598153 C642.656338,507.010056 635.604371,515.886304 628.59415,523.960073 C626.139814,526.786765 623.865354,529.311927 621.827107,531.502039 L622.131232,531.173505 C638.756925,545.450857 659.463247,554.764585 677.946874,554.764594 L677.946874,554.764594 L681.237767,554.764594 C734.258863,554.764594 777.353305,511.782488 777.514417,457.256578 C777.540836,456.09469 777.567281,454.741367 777.591979,453.210816 C777.943904,431.401476 777.590592,406.517928 775.98985,382.955951 C775.7539,379.482914 775.492884,376.094165 775.205983,372.796774 C771.799998,333.651408 749.600575,226.673233 734.577445,175.114487 C727.430494,150.586453 721.214673,131.026557 713.279449,110.063129 C701.703971,79.4828036 690.270159,57.2362424 679.684896,46.8559407 C674.00429,41.2853273 667.296195,36.4826258 659.765539,32.3993315 C650.876165,27.5793092 641.31739,23.9973856 631.754911,21.4818635 C628.408171,20.6014644 625.304695,19.9183464 622.527599,19.4093008 C621.563227,19.2325302 620.71115,19.0904045 619.981731,18.9799725 C619.556595,18.915608 619.274612,18.8769795 618.132239,18.769355 C617.203005,18.6838256 616.118744,18.584592 614.88982,18.4727964 C611.377806,18.1533076 607.411456,17.7972753 603.073689,17.4138391 C590.679898,16.318292 577.7949,15.2227466 565.082503,14.2003436 C559.447623,13.7471547 553.961392,13.3177835 548.657692,12.9159592 C526.703785,11.2526647 508.846528,10.1319446 496.565211,9.71424795 C489.091141,9.46004933 481.114765,9.25793003 472.652454,9.10267198 Z M392.420789,33.5048435 C392.363105,33.5050163 392.29339,33.505448 392.203755,33.5060031 C391.802873,33.5085259 391.329528,33.5116258 390.78631,33.5153269 C389.234075,33.5259029 387.4334,33.539173 385.404992,33.5553301 C379.609254,33.6014956 373.15103,33.6615232 366.195977,33.736955 C346.324775,33.9524703 326.453741,34.2481089 307.908561,34.6361901 C274.166846,35.3422778 248.668057,36.2737368 234.790128,37.4588534 C232.837398,37.6256082 230.731858,37.7947993 228.196467,37.9903963 C226.345441,38.1331967 219.392518,38.6571732 217.905309,38.7711117 C213.707756,39.092696 210.305681,39.366983 206.970713,39.6578907 C198.470985,40.3993182 191.083433,41.1972543 184.046551,42.1772808 C174.963861,43.442227 166.738186,44.980861 159.199304,46.8877775 C142.424746,51.1308051 123.422904,59.7554284 109.643984,71.9525922 C95.881383,84.1353097 84.9850633,101.026571 77.8375802,117.906292 C75.6654282,123.036114 73.758,128.774178 72.0768018,135.071389 C69.1211581,146.14225 67.8371709,153.552945 65.245225,171.44756 C62.0247822,193.681274 61.8056243,217.11371 63.7411031,258.074163 C65.4339898,293.900649 79.8052852,360.154962 94.9167477,399.954716 C112.660766,446.687954 126.574231,478.635503 138.82322,495.989518 C145.404315,505.313424 152.394868,514.11237 159.342918,522.114536 C161.773977,524.914421 164.025423,527.414031 166.040787,529.579555 L165.800243,529.319774 C175.768725,520.317633 184.0972,509.525817 189.329876,497.951787 C189.397991,497.792079 189.54568,497.45263 189.792315,496.894442 C190.197106,495.978312 190.738992,494.766914 191.437195,493.221674 C193.425588,488.821029 196.268452,482.625591 200.118995,474.32826 C203.044066,468.02518 207.978194,458.870617 214.444679,447.567964 C215.094417,446.432299 215.75724,445.279213 216.432355,444.10991 C220.594847,436.900452 225.052186,429.369221 229.509224,421.96443 C231.068984,419.373089 232.517464,416.982368 233.817673,414.848478 C234.273023,414.101163 234.677411,413.439174 235.026212,412.869542 C235.235957,412.527004 235.380853,412.2909 235.440196,412.194632 C243.578439,398.729532 262.509272,387.896361 278.243689,387.699202 L278.243689,387.699202 L312.202794,387.273993 L473.660996,387.274307 L507.569983,387.699202 C523.3044,387.896361 542.235233,398.729532 550.78746,412.869542 C551.136261,413.439174 551.540649,414.101163 551.995999,414.848478 C553.296208,416.982368 554.744688,419.373089 556.304448,421.96443 C560.761486,429.369221 565.218825,436.900452 569.381317,444.10991 C570.056431,445.279213 570.719255,446.432299 571.368993,447.567964 C577.835478,458.870617 582.769606,468.02518 585.694677,474.32826 C589.54522,482.625591 592.388084,488.821029 594.376477,493.221674 C595.07468,494.766914 595.616566,495.978312 596.449316,497.873286 C601.673117,509.428511 609.962537,520.197288 619.881457,529.188514 C621.831505,527.086998 623.997609,524.678167 626.328883,521.993206 C633.276933,513.99104 640.267486,505.192094 646.848581,495.868188 C659.09757,478.514173 673.011035,446.566625 690.755053,399.833387 C705.866515,360.033632 720.237811,293.77932 721.930698,257.952833 C723.866176,216.99238 723.647018,193.559944 720.426576,171.32623 C717.735235,152.745401 715.548996,141.331849 711.306536,127.863302 C710.075027,123.953627 708.740937,120.215963 707.295704,116.660262 C699.014119,96.285107 687.983463,80.8059426 674.157338,70.0410923 C658.584777,57.9164887 643.160405,51.4861869 625.98734,47.2120659 C614.696346,44.4019051 584.21947,40.1844308 550.881673,37.3375237 C536.74274,36.1301184 504.280845,35.1535266 460.273675,34.3917037 C444.768136,34.1232822 428.870049,33.9005439 413.453282,33.7214215 C407.982031,33.6578528 402.934785,33.6041056 398.457802,33.5602997 C395.594386,33.5322821 393.024072,33.5092096 392.420789,33.5048435 L392.420789,33.5048435 Z M609,53.5 C664.528876,53.5 709.5,99.8619834 709.5,157 C709.5,214.138017 664.528876,260.5 609,260.5 C608.353895,260.5 607.709218,260.493723 607.066026,260.481226 L530.916373,340.520395 C522.92809,348.916724 507.27933,355.625755 495.684039,355.625755 L495.684039,355.625755 L290.299725,355.625755 C278.701303,355.625755 263.056548,348.911472 255.06837,340.506739 C254.42459,339.829389 254.42459,339.829389 251.527581,336.781311 C247.664902,332.717208 247.664902,332.717208 242.192774,326.959729 C229.317179,313.412719 229.317179,313.412719 213.866465,297.156306 L213.362673,296.626243 C198.414574,280.898656 198.274641,280.751426 185.540723,267.353481 C184.809987,266.58464 183.663917,265.356087 182.212719,263.789047 C182.186856,263.761118 182.186856,263.761118 182.160994,263.733189 C181.257019,262.756919 180.291943,261.71123 179.329026,260.665584 C179.269207,260.600626 179.210155,260.536492 179.151913,260.473229 L178.662665,260.486127 L178.662665,260.486127 L177,260.5 C121.471124,260.5 76.5,214.138017 76.5,157 C76.5,99.8619834 121.471124,53.5 177,53.5 C200.284958,53.5 221.713459,61.652206 238.748059,75.3327119 C239.14438,75.291203 239.603358,75.24367 240.124566,75.1914253 C241.950467,75.0084011 244.165994,74.8046787 246.780039,74.585453 C254.238496,73.9599531 263.397687,73.3347864 274.328745,72.7515165 C305.539505,71.086143 344.691043,70.0871754 392.352412,70.0871754 L394.071777,70.0876098 C440.977897,70.1113421 480.516476,71.1061418 512.927887,72.7512467 C524.416024,73.3343497 534.172116,73.9592784 542.227322,74.5844531 C544.241344,74.7407639 546.044758,74.889165 547.638978,75.0277675 C564.607855,61.5304633 585.889562,53.5 609,53.5 Z M394.069354,74.0876091 L390.751419,74.0875526 C343.883454,74.1096673 305.330202,75.1030014 274.541878,76.7458343 C263.650802,77.3269707 254.531981,77.949382 247.114324,78.5714603 C245.602213,78.6982727 244.225701,78.8197492 242.983027,78.9348576 C264.137819,97.910624 277.5,125.854381 277.5,157 C277.5,211.589696 236.450793,256.343133 184.363607,260.2265 C184.61139,260.491907 184.85588,260.756194 185.096004,261.015522 C185.121773,261.043351 185.121773,261.043351 185.147542,261.071178 C186.587569,262.626155 187.724652,263.845074 188.440086,264.597815 C201.315492,278.144627 201.315492,278.144627 216.765828,294.400641 L217.269632,294.930717 C232.218097,310.658689 232.358032,310.805921 245.092138,324.204063 C250.564266,329.961543 250.564266,329.961543 254.426944,334.025646 C257.323953,337.073723 257.323953,337.073723 257.967733,337.751074 C265.20077,345.361287 279.797423,351.625755 290.299725,351.625755 L290.299725,351.625755 L495.684039,351.625755 C506.184091,351.625755 520.785303,345.365835 528.018404,337.763263 L528.018404,337.763263 L601.778842,260.237017 C549.624068,256.424704 508.5,211.639451 508.5,157 C508.5,125.715463 521.981645,97.661414 543.296333,78.6789202 C542.850173,78.6452882 542.389851,78.6090961 541.917808,78.5724602 C533.898309,77.9500568 524.1778,77.3274074 512.72512,76.7461041 C479.986602,75.0843963 439.945458,74.0871754 392.352412,74.0871754 Z M303,209 C339.450793,209 369,238.549207 369,275 C369,311.450793 339.450793,341 303,341 C266.549207,341 237,311.450793 237,275 C237,238.549207 266.549207,209 303,209 Z M486,295 C498.702549,295 509,305.297451 509,318 C509,330.575524 498.907469,340.79381 486.380347,340.996919 L486,341 C473.297451,341 463,330.702549 463,318 C463,305.297451 473.297451,295 486,295 Z M303,213 C268.758346,213 241,240.758346 241,275 C241,309.241654 268.758346,337 303,337 C337.241654,337 365,309.241654 365,275 C365,240.758346 337.241654,213 303,213 Z M486,299 C475.50659,299 467,307.50659 467,318 C467,328.380578 475.324636,336.816833 485.6622,336.997058 L486,337 C496.49341,337 505,328.49341 505,318 C505,307.50659 496.49341,299 486,299 Z M484.164465,309.5 L486.35331,309.508683 L486.362391,309.511 L488.097715,309.509405 L488.169844,309.718884 L493.859739,326.243539 L490.576755,326.252241 L488.981391,321.62 L483.276391,321.62 L481.683043,326.249753 L478.400391,326.240088 L484.063251,309.793947 L484.164465,309.5 Z M303,223 C330.614237,223 353,245.385763 353,273 C353,300.338095 331.059714,322.551762 303.826841,322.993301 L303,323 C275.385763,323 253,300.614237 253,273 C253,245.385763 275.385763,223 303,223 Z M486.128391,313.335 L484.261391,318.758 L487.996391,318.758 L486.128391,313.335 Z M303,229.122449 C278.767098,229.122449 259.122449,248.767098 259.122449,273 C259.122449,297.232902 278.767098,316.877551 303,316.877551 C327.232902,316.877551 346.877551,297.232902 346.877551,273 C346.877551,248.767098 327.232902,229.122449 303,229.122449 Z M303,238.5 C320.949254,238.5 335.5,253.050746 335.5,271 C335.5,288.949254 320.949254,303.5 303,303.5 C285.050746,303.5 270.5,288.949254 270.5,271 C270.5,253.050746 285.050746,238.5 303,238.5 Z M303,241.5 C286.7076,241.5 273.5,254.7076 273.5,271 C273.5,287.2924 286.7076,300.5 303,300.5 C319.2924,300.5 332.5,287.2924 332.5,271 C332.5,254.7076 319.2924,241.5 303,241.5 Z M529,252 C541.702549,252 552,262.297451 552,275 C552,287.575524 541.907469,297.79381 529.380347,297.996919 L529,298 C516.297451,298 506,287.702549 506,275 C506,262.297451 516.297451,252 529,252 Z M443,252 C455.702549,252 466,262.297451 466,275 C466,287.575524 455.907469,297.79381 443.380347,297.996919 L443,298 C430.297451,298 420,287.702549 420,275 C420,262.297451 430.297451,252 443,252 Z M443,256 C432.50659,256 424,264.50659 424,275 C424,285.380578 432.324636,293.816833 442.6622,293.997058 L443,294 C453.49341,294 462,285.49341 462,275 C462,264.50659 453.49341,256 443,256 Z M529,256 C518.50659,256 510,264.50659 510,275 C510,285.380578 518.324636,293.816833 528.6622,293.997058 L529,294 C539.49341,294 548,285.49341 548,275 C548,264.50659 539.49341,256 529,256 Z M530.447188,267 C533.095397,267 535.238671,269.129124 535.240582,271.774576 C535.241433,272.953221 534.818326,274.032059 534.114812,274.866771 C535.120849,275.720426 535.75106,276.953822 535.749999,278.325959 C535.748004,280.90517 533.502214,282.999903 530.736601,282.999903 L526.755336,282.999903 L526.75,282.994 L526.75,283 L523.75,283 L523.75,267 L530.447188,267 Z M449.982375,266.996545 L444.827,274.511545 L450.2,283 L446.417803,283 L442.998,277.203545 L439.582342,282.992872 L435.8,282.993114 L441.138,274.557545 L435.8,267.061056 L439.582197,267.061056 L442.955,272.141545 L446.200613,267.061914 L449.982375,266.996545 Z M526.755,276.57 L526.75,276.57 L526.75,280.075 L530.736601,280.075021 C531.77291,280.075021 532.616253,279.288403 532.616999,278.323846 C532.617748,277.355286 531.783205,276.574783 530.744098,276.574783 L526.755336,276.574783 L526.755,276.57 Z M530.44001,269.980593 L526.75,269.98 L526.75,274.097 L526.755,273.894 L526.755336,273.649902 L526.761,273.649 L526.763338,273.570726 L530.447188,273.570726 C531.442184,273.570726 532.2413,272.770178 532.240583,271.776743 C532.239904,270.83688 531.511063,270.061731 530.587394,269.986566 L530.44001,269.980593 Z M486,209 C498.702549,209 509,219.297451 509,232 C509,244.575524 498.907469,254.79381 486.380347,254.996919 L486,255 C473.297451,255 463,244.702549 463,232 C463,219.297451 473.297451,209 486,209 Z M609,60.5 C557.385635,60.5 515.5,103.681067 515.5,157 C515.5,210.318933 557.385635,253.5 609,253.5 C660.614365,253.5 702.5,210.318933 702.5,157 C702.5,103.681067 660.614365,60.5 609,60.5 Z M177,60.5 C125.385635,60.5 83.5,103.681067 83.5,157 C83.5,210.318933 125.385635,253.5 177,253.5 C228.614365,253.5 270.5,210.318933 270.5,157 C270.5,103.681067 228.614365,60.5 177,60.5 Z M486,213 C475.50659,213 467,221.50659 467,232 C467,242.380578 475.324636,250.816833 485.6622,250.997058 L486,251 C496.49341,251 505,242.49341 505,232 C505,221.50659 496.49341,213 486,213 Z M609,67 C657.060569,67 696,107.305727 696,157 C696,206.694273 657.060569,247 609,247 C591.346208,247 574.476155,241.547888 560.184097,231.50801 C559.506213,231.031811 559.342716,230.096242 559.818915,229.418359 C560.295114,228.740476 561.230683,228.576978 561.908567,229.053177 C575.700937,238.742035 591.970257,244 609,244 C655.380123,244 693,205.060127 693,157 C693,108.939873 655.380123,70 609,70 C608.171573,70 607.5,69.3284271 607.5,68.5 C607.5,67.6715729 608.171573,67 609,67 Z M482.729666,224.2 L486.101,230.968 L489.47019,224.208323 L493.2,224.208041 L487.659874,234.572727 L487.65,234.567 L487.650992,240.94191 L484.546097,240.94191 L484.546,234.558 L484.539129,234.562728 L479,224.2 L482.729666,224.2 Z M175.530052,75.5025633 C184.646416,75.3435306 192.16836,82.6045992 192.327462,91.7141416 L192.327462,91.7141416 L193.059988,133.655757 C193.122605,137.240967 196.088697,140.099943 199.67957,140.037301 L199.67957,140.037301 L241.704508,139.304186 C250.81566,139.145245 258.336118,146.407566 258.495121,155.511462 L258.495121,155.511462 L258.497433,155.643837 C258.656567,164.755229 251.396783,172.259216 242.28041,172.404816 L242.28041,172.404816 L200.254391,173.076024 C196.663708,173.133372 193.801193,176.094234 193.863898,179.684492 L193.863898,179.684492 L194.597859,221.708231 C194.757037,230.822157 187.495881,238.338355 178.37682,238.497434 C169.258423,238.656503 161.738569,231.398687 161.579382,222.28423 L161.579382,222.28423 L160.845421,180.26049 C160.782636,176.665675 157.819483,173.804492 154.22293,173.867233 L154.22293,173.867233 L111.316781,174.615721 C102.748067,174.765201 95.6873898,167.952904 95.5377268,159.383785 L95.5377268,159.383785 L95.5024128,157.361843 C95.35286,148.799034 102.174297,141.742406 110.741285,141.599492 L110.741285,141.599492 L153.648005,140.883724 C157.240905,140.823787 160.104921,137.862365 160.042269,134.275168 L160.042269,134.275168 L159.308828,92.2811551 C159.149748,83.1728528 166.411229,75.6616388 175.530052,75.5025633 Z M175.892448,78.5005489 L175.582446,78.5024689 C168.121063,78.6326308 162.18037,84.7776332 162.310507,92.2287915 L162.310507,92.2287915 L163.043949,134.222804 C163.135555,139.467775 158.949631,143.796063 153.698109,143.883668 L153.698109,143.883668 L110.791389,144.599437 C103.883326,144.714677 98.3834881,150.40414 98.5040925,157.30948 L98.5040925,157.30948 L98.5394065,159.331422 C98.6601292,166.243532 104.353248,171.736379 111.264386,171.615816 L111.264386,171.615816 L154.170535,170.867328 C159.425196,170.775661 163.755385,174.956836 163.847101,180.208126 L163.847101,180.208126 L164.581062,222.231866 C164.711313,229.689546 170.863836,235.627677 178.324426,235.497529 C185.785571,235.367371 191.726423,229.217852 191.596179,221.760595 L191.596179,221.760595 L190.862218,179.736856 C190.770557,174.488694 194.95556,170.159908 200.206421,170.076045 L200.206421,170.076045 L242.23244,169.404836 C249.689103,169.285744 255.625923,163.149222 255.495753,155.696201 L255.495753,155.696201 L255.493441,155.563826 C255.363368,148.116345 249.209885,142.174076 241.756902,142.304092 L241.756902,142.304092 L199.731964,143.037207 C194.484166,143.128754 190.149877,138.95099 190.058309,133.70812 L190.058309,133.70812 L189.325782,91.7665051 C189.195615,84.3136258 183.040889,78.3723582 175.582446,78.5024689 Z M393,109 C410.120827,109 424,122.879173 424,140 C424,156.949619 410.397023,170.722092 393.512642,170.995847 L393,171 C375.879173,171 362,157.120827 362,140 C362,122.879173 375.879173,109 393,109 Z M338.997545,136 C347.283595,136 354,142.714573 354,151 C354,159.28694 347.288538,166 338.997545,166 L338.997545,166 L316.002455,166 C307.716405,166 301,159.285427 301,151 C301,142.71306 307.711462,136 316.002455,136 L316.002455,136 Z M469.997545,136 C478.283595,136 485,142.714573 485,151 C485,159.28694 478.288538,166 469.997545,166 L469.997545,166 L447.002455,166 C438.716405,166 432,159.285427 432,151 C432,142.71306 438.711462,136 447.002455,136 L447.002455,136 Z M393,115 C379.192881,115 368,126.192881 368,140 C368,153.669048 378.970143,164.775881 392.586579,164.996651 L393,165 C406.807119,165 418,153.807119 418,140 C418,126.192881 406.807119,115 393,115 Z M338.997545,140 L316.002455,140 C309.920814,140 305,144.921986 305,151 C305,157.076044 309.9253,162 316.002455,162 L316.002455,162 L338.997545,162 C345.079186,162 350,157.078014 350,151 C350,144.923956 345.0747,140 338.997545,140 L338.997545,140 Z M469.997545,140 L447.002455,140 C440.920814,140 436,144.921986 436,151 C436,157.076044 440.9253,162 447.002455,162 L447.002455,162 L469.997545,162 C476.079186,162 481,157.078014 481,151 C481,144.923956 476.0747,140 469.997545,140 L469.997545,140 Z M331.791667,145.670923 L331.791667,156.330063 C331.791667,156.877985 331.379298,157.126037 330.888526,156.89262 L319.40314,151.430037 C318.90435,151.192806 318.912368,150.804366 319.40314,150.570949 L330.888526,145.108365 C331.387317,144.871135 331.791667,145.128805 331.791667,145.670923 Z M454.013613,145.670923 C454.013613,145.128805 454.417963,144.871135 454.916754,145.108365 L454.916754,145.108365 L466.402139,150.570949 C466.892912,150.804366 466.90093,151.192806 466.402139,151.430037 L466.402139,151.430037 L454.916754,156.89262 C454.425982,157.126037 454.013613,156.877985 454.013613,156.330063 L454.013613,156.330063 Z" id="Steam-Controller"></path>
            </g>
        </g>
    </g>
</svg>