<?xml version="1.0" encoding="UTF-8"?>
<svg width="840px" height="565px" viewBox="0 0 840 565" version="1.1" xmlns="http://www.w3.org/2000/svg" xmlns:xlink="http://www.w3.org/1999/xlink">
    <!-- Generator: Sketch 64 (93537) - https://sketch.com -->
    <title>Xbox One Controller</title>
    <desc>Created with Sketch.</desc>
    <g id="Gadgets-illustrations" stroke="none" stroke-width="1" fill="none" fill-rule="evenodd">
        <g transform="translate(-2344.000000, -1025.000000)" fill="#000000" fill-rule="nonzero" id="2">
            <g transform="translate(2344.000000, 1025.000000)">
                <path d="M553.065769,7.86808078 C561.228563,3.19444489 575.09708,0.128166381 584.273496,0.987224879 C584.419138,0.99569254 584.693863,1.01298119 585.089099,1.03987318 C585.743139,1.08437429 586.500492,1.14004165 587.352593,1.20765995 C589.782471,1.4004825 592.48813,1.65051244 595.401174,1.96407559 C603.729224,2.86051548 612.059734,4.0871141 619.851035,5.69712992 C625.119217,6.78576153 629.963429,8.01672955 634.296247,9.40166652 C640.21506,11.2935494 647.120629,14.0233442 654.823889,17.4529916 C658.337563,19.0173505 661.982619,20.7122669 665.731106,22.5182549 C672.972817,26.007247 680.261246,29.7432194 687.238883,33.4790925 C689.681117,34.786681 691.910559,36.0011311 693.882324,37.0914958 C694.573243,37.4735667 695.182863,37.8129858 695.705567,38.1058829 C696.020468,38.2823378 696.237201,38.4045184 696.322251,38.4529728 C701.678198,41.3997317 707.631302,48.1722883 709.862398,53.8601382 L709.862398,53.8601382 L715.613191,68.5200268 L715.811297,68.6021332 C727.027231,73.0250474 738.963106,85.4007675 743.311619,97.4574951 L743.471115,97.9094567 C743.733076,98.6675405 743.881019,99.0957309 744.13568,99.8329515 C744.863245,101.939183 745.707202,104.383438 746.657854,107.137998 C749.373939,115.007993 752.400409,123.786575 755.659675,133.252006 C764.971935,160.296303 774.284228,187.426868 782.975928,212.870031 C783.337774,213.929313 783.337774,213.929313 783.699586,214.988699 C794.950767,247.933814 804.261489,275.420803 810.998346,295.639676 C815.389367,308.818151 819.346129,323.457484 822.894659,339.31126 C828.45318,364.145078 832.761519,390.724503 835.975442,417.299927 C837.099971,426.598476 838.007619,435.234 838.717284,442.986694 C838.965917,445.702867 839.172104,448.115653 839.338195,450.197548 C839.396465,450.927944 839.445591,451.565283 839.543317,453.126565 L839.543317,453.126565 L839.422437,459.500732 C838.906831,486.689349 827.89193,512.968126 809.757621,533.127571 C792.700917,552.089071 770.906476,563.751623 750.588343,564.394502 C750.4282,564.399569 750.215851,564.394502 750.215851,564.394502 C749.899796,564.398295 749.49471,564.331051 749.49471,564.331051 C749.49471,564.331051 749.489099,564.33013 749.480677,564.328739 L749.418811,564.318355 C748.289408,564.122396 746.963957,563.579462 745.302234,562.476702 C744.403068,561.873909 743.362811,561.164236 742.193173,560.351488 C738.861737,558.036569 735.153905,555.355369 731.163275,552.338164 C719.764628,543.719959 708.365996,534.125113 697.714219,523.789943 C695.424237,521.568026 693.189637,519.330748 691.015043,517.079507 C687.072001,512.997484 682.904237,508.7998 678.518165,504.484389 C662.809582,489.028876 622.368262,452.101922 626.391602,455.943676 C619.150659,449.029539 611.803008,443.057495 604.737048,438.04853 C602.271835,436.300974 600.021694,434.80069 598.035271,433.550025 C597.346208,433.116185 596.741201,432.745536 595.432583,431.968066 C586.800329,426.354672 571.092657,421.629885 560.205719,421.556133 C559.631838,421.547783 558.763099,421.538413 557.541605,421.528294 C554.037194,421.499263 548.413901,421.470201 540.201394,421.443066 C517.194409,421.367049 478.804041,421.320825 421.479914,421.319007 L414.413502,421.319006 C357.097281,421.320809 318.907316,421.366638 296.229984,421.442004 C288.13545,421.468906 282.638506,421.497718 279.260599,421.526496 L278.996439,421.528782 C277.195935,421.544618 276.408799,421.556925 276.153767,421.564988 C265.858812,421.642702 250.378226,426.608315 241.96933,432.613372 C241.891227,432.664335 241.722291,432.7762 239.90062,434.018302 C238.16443,435.22102 236.132253,436.673081 233.823342,438.37611 C227.204251,443.258286 219.708956,449.164025 211.491444,456.106284 C199.225319,466.468862 170.093998,493.909222 147.283557,517.105117 C146.143043,518.264904 144.988465,519.421568 143.820403,520.574911 C132.660952,531.593734 120.717945,541.89886 108.775034,551.212326 C104.594091,554.47276 100.709705,557.377888 97.2200912,559.89225 C95.9953384,560.774718 94.9062804,561.546052 92.8104433,562.998158 C91.6818487,563.773776 90.0632597,564.265117 88.6954154,564.251135 L88.8861905,564.248027 L88.8343515,564.247697 L88.8343515,564.247697 L88.6659166,564.243871 C40.7720768,563.102379 1.58267287,516.349775 0.50469926,459.512863 C0.50469926,459.512863 0.414412938,453.968575 0.402826881,452.593277 L0.402190532,452.299601 C0.418018686,451.75632 0.438901569,451.116526 0.465477267,450.383655 C0.541165318,448.296428 0.647281073,445.878232 0.788934157,443.156551 C1.1931091,435.390852 1.80076483,426.741951 2.652911,417.429431 C5.08858772,390.811592 8.99551192,364.188305 14.7089324,339.305456 C18.3599419,323.404733 22.648101,308.719 27.626929,295.494731 C32.676892,282.08152 38.3374076,266.373149 44.4997156,248.738959 C46.167896,243.965259 47.8676461,239.065191 49.5961974,234.048181 C58.0614663,209.478283 66.8628879,183.148894 75.4844736,156.818884 C78.5021854,147.602901 81.281788,139.045363 83.758858,131.365932 C84.6257057,128.678524 85.3927741,126.292979 86.0520119,124.236751 C86.2826648,123.517321 86.4833418,122.890513 86.9242526,121.527106 L86.9242526,121.527106 L96.1325571,96.9980432 C100.285612,85.9351432 112.006599,73.9483302 124.050534,68.923221 L129.960014,53.8601382 C132.19111,48.1722883 138.144214,41.3997317 143.472265,38.4685535 C143.585211,38.4045184 143.801944,38.2823378 144.116845,38.1058829 C144.639549,37.8129858 145.249169,37.4735667 145.940088,37.0914958 C147.911853,36.0011311 150.141295,34.786681 152.58353,33.4790925 C159.561166,29.7432194 166.849595,26.007247 174.091306,22.5182549 C177.839793,20.7122669 181.484849,19.0173505 184.998523,17.4529916 C192.701783,14.0233442 199.607352,11.2935494 205.526165,9.40166652 C209.858983,8.01672955 214.703195,6.78576153 219.971377,5.69712992 C227.762678,4.0871141 236.093188,2.86051548 244.421238,1.96407559 C247.334282,1.65051244 250.039941,1.4004825 252.469819,1.20765995 C253.32192,1.14004165 254.079273,1.08437429 254.733313,1.03987318 C255.128549,1.01298119 255.403274,0.99569254 255.461417,0.993854748 C264.725332,0.128166381 278.593849,3.19444489 286.756643,7.86808078 L286.756643,7.86808078 L306.74692,19.3135826 C307.758479,19.8927546 308.590461,20.675245 309.219715,21.5820755 C309.754861,21.4991627 310.335727,21.4170447 310.951371,21.3394981 C312.993709,21.0822454 315.039133,20.9211788 316.977751,20.9037336 C318.43941,20.8905804 356.960597,21.7978983 358.748567,21.8377766 C364.516431,21.9664213 369.932464,22.0820417 375.100978,22.186007 C393.86004,22.5633479 408.561187,22.7712524 418.643711,22.7712524 C442.194784,22.7712524 513.86962,21.3558746 524.480446,20.9439866 C525.112809,20.9194397 525.77972,20.9218279 526.477826,20.9484323 C527.881393,21.0019213 529.363217,21.1501245 530.85829,21.3635139 L530.769721,21.3506657 C531.376544,20.5420125 532.151025,19.8428898 533.075492,19.3135826 L533.075492,19.3135826 Z M94.479988,124.148211 L94.4138911,124.338745 L94.4511905,124.236027 L94.4333142,124.294469 C94.4043791,124.385096 94.3670626,124.501914 94.321436,124.644665 L94.273042,124.796049 C94.1027026,125.328821 93.9013751,125.957661 93.6700653,126.679139 C93.0094098,128.73979 92.2408977,131.129824 91.3725749,133.821805 C88.8920151,141.512055 86.1087944,150.080733 83.0872671,159.308368 C74.4538838,185.674408 65.6400028,212.041069 57.1598556,236.654151 C55.4275759,241.681981 53.7240006,246.593077 52.0518713,251.378077 C45.8700731,269.068041 40.1887649,284.834112 35.1138842,298.313508 C30.2706008,311.177757 26.0812884,325.524968 22.5060328,341.09577 C16.8817324,365.590487 13.0250022,391.871733 10.6196269,418.158429 C9.77740485,427.362495 9.17704397,435.907567 8.7781209,443.572358 C8.63868968,446.251348 8.53441341,448.627625 8.46022258,450.673565 C8.43434067,451.387303 8.41407706,452.008124 8.39879745,452.532577 C8.39275015,452.740143 8.38835381,452.901817 8.38542039,453.016577 L8.38419053,453.070027 L8.5032608,459.361162 C9.48841806,511.304267 44.3825341,553.776449 86.7031949,556.159727 L87.9878851,556.219645 C88.4608357,556.237133 88.5151548,556.245201 88.5151548,556.245201 C88.5151548,556.245201 89.0761576,555.857902 89.391588,555.638109 C90.2985979,555.006099 91.3533194,554.259084 92.5433987,553.4016 C95.9533051,550.944668 99.7569564,548.099922 103.855438,544.903794 C115.568025,535.769943 127.280516,525.663718 138.19953,514.882302 C139.33988,513.756323 140.466735,512.627431 141.579508,511.495854 C164.550835,488.136355 193.856064,460.532182 206.328684,449.995154 C214.683018,442.937306 222.31636,436.922796 229.07463,431.937963 C231.447796,430.18754 233.544352,428.689478 235.345044,427.442077 C235.979504,427.002565 236.53277,426.625087 237.002435,426.30943 C237.290047,426.116129 237.48924,425.984229 237.597608,425.913518 L237.552191,425.942027 L237.921298,425.682848 C247.46013,419.071506 263.812474,413.825493 275.521328,413.573563 L275.998191,413.566027 L276.008905,413.566683 C276.296313,413.557376 277.13655,413.544815 278.928476,413.529069 L279.192447,413.526786 C282.586398,413.497872 288.096177,413.468992 296.203397,413.442049 C318.890976,413.366648 357.088857,413.32081 414.413016,413.319006 L421.480398,413.319007 C478.812418,413.320826 517.210694,413.367059 540.227826,413.443109 C548.452504,413.470284 554.088182,413.499411 557.607876,413.528569 C559.562869,413.544764 560.529287,413.557761 560.892565,413.566959 L560.935191,413.568027 L560.944191,413.568027 L561.455166,413.574942 C573.041216,413.805506 589.483274,418.750975 599.300405,424.945352 L599.686191,425.192027 L599.702022,425.201283 C600.189263,425.481043 600.974963,425.951352 602.028674,426.611186 L602.297668,426.780093 C604.405037,428.106907 606.776462,429.688057 609.363591,431.522038 C616.732897,436.746041 624.379681,442.961214 631.916382,450.157761 L631.898191,450.140027 L631.805842,450.051707 C628.627727,446.98425 667.647637,482.62252 683.6464,498.307916 L684.128898,498.781786 C688.56155,503.143027 692.776799,507.388537 696.769001,511.521452 C698.882577,513.709526 701.056174,515.885727 703.285101,518.048404 C713.681687,528.135968 724.834871,537.524208 735.98804,545.956812 C739.890546,548.90739 743.512054,551.526167 746.758231,553.781843 C747.890758,554.568803 748.894259,555.253401 749.756954,555.831743 C750.031161,556.015569 750.272232,556.175958 750.479042,556.312539 C750.498326,556.325274 750.535999,556.350124 750.535999,556.350124 L750.535999,556.350124 L750.55268,556.350604 C750.649925,556.353345 751.146431,556.366507 751.352052,556.355721 C769.03396,555.428254 788.412977,544.893737 803.80992,527.777352 C820.695659,509.005909 830.945938,484.551328 831.423875,459.349047 L831.423875,459.349047 L831.541191,453.155027 L831.536866,453.092873 C831.531796,453.023023 831.525828,452.941506 831.518953,452.84845 L831.507957,452.700228 C831.468718,452.173311 831.420674,451.550004 831.363532,450.833757 C831.199876,448.782384 830.996338,446.400578 830.750592,443.715949 C830.047748,436.037775 829.148157,427.478906 828.03331,418.260415 C824.849019,391.930011 820.581693,365.603608 815.087828,341.058653 C811.594983,325.453662 807.70751,311.070689 803.408568,298.168563 C796.679312,277.972502 787.374184,250.502031 776.128902,217.574185 C775.767206,216.515139 775.767206,216.515139 775.405474,215.456191 C767.411262,192.054782 758.891513,167.224347 750.329694,142.346603 L748.09554,135.856591 C744.836908,126.393003 741.811045,117.61618 739.095549,109.747894 C738.145147,106.994056 737.301435,104.55051 736.574111,102.444977 C736.319562,101.70808 736.171677,101.280057 735.909879,100.522445 C735.720823,99.975415 735.720823,99.975415 735.681351,99.861235 C732.46161,90.5304382 722.058053,79.6650476 712.785615,76.0072398 C712.657812,75.9531806 712.390494,75.8416937 711.984309,75.6747122 C711.299153,75.3930468 710.476424,75.059752 709.51677,74.6767609 C706.764446,73.5783276 703.472189,72.3043006 699.645182,70.8701423 C688.690252,66.7648185 675.658457,62.2044968 660.591249,57.3128689 C645.552071,52.430341 631.30211,48.3468068 618.298853,45.0295109 C613.752725,43.8697359 609.689165,42.8889702 606.165294,42.0830529 C604.935397,41.8017726 603.86179,41.5626286 602.95161,41.3650982 C602.410489,41.2476623 602.047041,41.1707877 601.868404,41.1339506 L601.868404,41.1339506 L601.75619,41.1091251 C592.434991,38.9060355 579.075602,43.0134827 572.518862,50.0789324 L572.518862,50.0789324 L508.414107,119.157301 C503.894572,124.027488 495.305707,127.773734 488.66326,127.773734 L488.66326,127.773734 L353.392472,127.773734 C346.747379,127.773734 338.163326,124.017868 333.657536,119.138914 L333.657536,119.138914 L270.546422,50.8010102 C263.958577,43.6675678 250.409756,39.0141544 240.843583,40.5952746 L240.843583,40.5952746 L240.676518,40.6228875 L240.507717,40.6362822 C240.422467,40.643047 240.203068,40.6643888 239.847958,40.7052225 C239.223977,40.7769732 238.461168,40.8780448 237.557973,41.013352 C234.935605,41.4062079 231.733013,41.9949806 227.937764,42.8189822 C217.009021,45.1917652 203.560514,48.977149 187.493212,54.4894243 C171.311862,60.0408267 156.504855,65.3275901 143.386048,70.17302 C138.796745,71.8680788 134.747032,73.386593 131.276125,74.7064774 C130.062682,75.1679143 129.008634,75.5714165 128.11888,75.9142233 C127.808189,76.0339274 127.540409,76.1374229 127.316151,76.2243648 C127.092517,76.3111713 127.092517,76.3111713 127.008327,76.3437383 L126.605791,76.4997466 C117.462433,80.1379215 107.053101,90.6704439 103.622196,99.8096822 L103.622196,99.8096822 L94.4521905,124.234027 L94.4594528,124.212581 C94.4672327,124.188202 94.4740786,124.166742 94.479988,124.148211 Z M312,235 C351.764502,235 384,267.235498 384,307 C384,346.764502 351.764502,379 312,379 C272.235498,379 240,346.764502 240,307 C240,267.235498 272.235498,235 312,235 Z M312,239 C274.444637,239 244,269.444637 244,307 C244,344.555363 274.444637,375 312,375 C349.555363,375 380,344.555363 380,307 C380,269.444637 349.555363,239 312,239 Z M527,241 C563.450793,241 593,270.549207 593,307 C593,343.450793 563.450793,373 527,373 C490.549207,373 461,343.450793 461,307 C461,270.549207 490.549207,241 527,241 Z M527,245 C492.758346,245 465,272.758346 465,307 C465,341.241654 492.758346,369 527,369 C561.241654,369 589,341.241654 589,307 C589,272.758346 561.241654,245 527,245 Z M322.16463,248 C327.406467,248 331.655816,252.251917 331.655816,257.494234 L331.655428,287.343706 L361.505766,287.344184 C366.749287,287.344184 371,291.588569 371,296.83537 L371,317.16463 C371,322.406467 366.748083,326.655816 361.505766,326.655816 L331.655428,326.655428 L331.655816,356.505766 C331.655816,361.749287 327.411431,366 322.16463,366 L301.83537,366 C296.593533,366 292.344184,361.748083 292.344184,356.505766 L292.343706,326.655428 L262.494234,326.655816 C257.250713,326.655816 253,322.411431 253,317.16463 L253,296.83537 C253,291.593533 257.251917,287.344184 262.494234,287.344184 L292.343706,287.343706 L292.344184,257.494234 C292.344184,252.250713 296.588569,248 301.83537,248 L322.16463,248 Z M322.16463,253.997059 L301.83537,253.997059 C299.967687,253.997059 298.445791,255.457696 298.346406,257.302195 L298.341244,257.49433 L298.340669,293.340669 L262.494234,293.341244 C260.62741,293.341244 259.101863,294.803965 259.002235,296.643747 L258.997059,296.83537 L258.997059,317.16463 C258.997059,319.032313 260.457696,320.554209 262.302038,320.653594 L262.494156,320.658756 L298.340669,320.658291 L298.341244,356.505766 C298.341244,358.37259 299.803965,359.898137 301.643747,359.997765 L301.83537,360.002941 L322.16463,360.002941 C324.032313,360.002941 325.554209,358.542304 325.653594,356.697962 L325.658756,356.505844 L325.658291,320.658291 L361.505766,320.658756 C363.37259,320.658756 364.898137,319.196035 364.997765,317.356253 L365.002941,317.16463 L365.002941,296.83537 C365.002941,294.967687 363.542304,293.445791 361.697805,293.346406 L361.50567,293.341244 L325.658291,293.340669 L325.658756,257.494234 C325.658756,255.62741 324.196035,254.101863 322.356253,254.002235 L322.16463,253.997059 Z M527,256 C555.166522,256 578,278.833478 578,307 C578,335.166522 555.166522,358 527,358 C498.833478,358 476,335.166522 476,307 C476,278.833478 498.833478,256 527,256 Z M527,264 C503.251756,264 484,283.251756 484,307 C484,330.748244 503.251756,350 527,350 C550.748244,350 570,330.748244 570,307 C570,283.251756 550.748244,264 527,264 Z M527,275 C544.673112,275 559,289.326888 559,307 C559,324.673112 544.673112,339 527,339 C509.326888,339 495,324.673112 495,307 C495,289.326888 509.326888,275 527,275 Z M527,278 C510.983742,278 498,290.983742 498,307 C498,323.016258 510.983742,336 527,336 C543.016258,336 556,323.016258 556,307 C556,290.983742 543.016258,278 527,278 Z M631.277576,194.735986 C647.977575,194.735986 661.515152,208.281036 661.515152,224.98915 C661.515152,241.697264 647.977575,255.242315 631.277576,255.242315 C614.577577,255.242315 601.04,241.697264 601.04,224.98915 C601.04,208.281036 614.577577,194.735986 631.277576,194.735986 Z M631.277576,198.735986 C616.78721,198.735986 605.04,210.489681 605.04,224.98915 C605.04,239.48862 616.78721,251.242315 631.277576,251.242315 C645.767942,251.242315 657.515152,239.48862 657.515152,224.98915 C657.515152,210.489681 645.767942,198.735986 631.277576,198.735986 Z M627.880852,209.838308 L631.838431,209.853343 C631.838431,209.853343 631.844401,209.854915 631.855663,209.857891 L634.986604,209.855322 L635.117083,210.234262 L645.409883,240.126723 L639.474024,240.141454 L636.588864,231.763308 L626.271864,231.763308 L623.389123,240.136953 L617.453864,240.120478 L627.697759,210.370047 L627.880852,209.838308 Z M208,104 C244.450793,104 274,133.549207 274,170 C274,206.450793 244.450793,236 208,236 C171.549207,236 142,206.450793 142,170 C142,133.549207 171.549207,104 208,104 Z M208,108 C173.758346,108 146,135.758346 146,170 C146,204.241654 173.758346,232 208,232 C242.241654,232 270,204.241654 270,170 C270,135.758346 242.241654,108 208,108 Z M631.430864,216.781308 L628.054864,226.585308 L634.805864,226.585308 L631.430864,216.781308 Z M208,119 C236.166522,119 259,141.833478 259,170 C259,198.166522 236.166522,221 208,221 C179.833478,221 157,198.166522 157,170 C157,141.833478 179.833478,119 208,119 Z M208,127 C184.251756,127 165,146.251756 165,170 C165,193.748244 184.251756,213 208,213 C231.748244,213 251,193.748244 251,170 C251,146.251756 231.748244,127 208,127 Z M208,138 C225.673112,138 240,152.326888 240,170 C240,187.673112 225.673112,202 208,202 C190.326888,202 176,187.673112 176,170 C176,152.326888 190.326888,138 208,138 Z M687.752727,140.24774 C704.452726,140.24774 717.990303,153.79279 717.990303,170.500904 C717.990303,187.209019 704.452726,200.754069 687.752727,200.754069 C671.052728,200.754069 657.515152,187.209019 657.515152,170.500904 C657.515152,153.79279 671.052728,140.24774 687.752727,140.24774 Z M574.802424,140.24774 C591.502423,140.24774 605.04,153.79279 605.04,170.500904 C605.04,187.209019 591.502423,200.754069 574.802424,200.754069 C558.102425,200.754069 544.564848,187.209019 544.564848,170.500904 C544.564848,153.79279 558.102425,140.24774 574.802424,140.24774 Z M208,141 C191.983742,141 179,153.983742 179,170 C179,186.016258 191.983742,199 208,199 C224.016258,199 237,186.016258 237,170 C237,153.983742 224.016258,141 208,141 Z M574.802424,144.24774 C560.312058,144.24774 548.564848,156.001435 548.564848,170.500904 C548.564848,185.000374 560.312058,196.754069 574.802424,196.754069 C589.29279,196.754069 601.04,185.000374 601.04,170.500904 C601.04,156.001435 589.29279,144.24774 574.802424,144.24774 Z M687.752727,144.24774 C673.262361,144.24774 661.515152,156.001435 661.515152,170.500904 C661.515152,185.000374 673.262361,196.754069 687.752727,196.754069 C702.243093,196.754069 713.990303,185.000374 713.990303,170.500904 C713.990303,156.001435 702.243093,144.24774 687.752727,144.24774 Z M359.995152,149.338156 C371.677851,149.338156 381.147879,158.813411 381.147879,170.500904 C381.147879,182.188397 371.677851,191.663653 359.995152,191.663653 C348.312452,191.663653 338.842424,182.188397 338.842424,170.500904 C338.842424,158.813411 348.312452,149.338156 359.995152,149.338156 Z M480.004848,149.338156 C491.687548,149.338156 501.157576,158.813411 501.157576,170.500904 C501.157576,182.188397 491.687548,191.663653 480.004848,191.663653 C468.322149,191.663653 458.852121,182.188397 458.852121,170.500904 C458.852121,158.813411 468.322149,149.338156 480.004848,149.338156 Z M568.70601,155.372291 L574.807705,166.390291 L580.903845,155.385841 L587.653411,155.385381 L578.275705,171.168291 L587.640866,185.723296 L580.892336,185.605091 L575.105877,175.948296 L569.088182,185.607304 L562.338877,185.607304 L571.645705,171.681291 L561.956705,155.372291 L568.70601,155.372291 Z M480.004848,155.338156 C471.636599,155.338156 464.852121,162.126379 464.852121,170.500904 C464.852121,178.87543 471.636599,185.663653 480.004848,185.663653 C488.373098,185.663653 495.157576,178.87543 495.157576,170.500904 C495.157576,162.126379 488.373098,155.338156 480.004848,155.338156 Z M359.995152,155.338156 C351.626902,155.338156 344.842424,162.126379 344.842424,170.500904 C344.842424,178.87543 351.626902,185.663653 359.995152,185.663653 C368.363401,185.663653 375.147879,178.87543 375.147879,170.500904 C375.147879,162.126379 368.363401,155.338156 359.995152,155.338156 Z M690.276685,155.36528 C695.287906,155.36528 699.350303,159.430047 699.350303,164.446655 C699.350303,166.611084 698.594511,168.598659 697.332174,170.158933 C699.187447,171.778081 700.358788,174.158949 700.358788,176.807414 C700.358788,181.683599 696.417822,185.636528 691.52628,185.636528 L678.172121,185.636528 L678.172121,155.36528 L690.276685,155.36528 Z M691.52628,173.598662 L683.789382,173.601821 L683.789382,180.016166 L691.52628,180.016166 C693.310689,180.016166 694.741527,178.584368 694.741527,176.807414 C694.741527,175.041966 693.298788,173.598662 691.52628,173.598662 Z M690.276685,160.985642 L683.789382,160.985642 L683.789382,167.907667 L690.276685,167.907667 C692.187483,167.907667 693.733042,166.360305 693.733042,164.446655 C693.733042,162.534193 692.185684,160.985642 690.276685,160.985642 Z M631.277576,85.7594937 C647.977575,85.7594937 661.515152,99.3045438 661.515152,116.012658 C661.515152,132.720773 647.977575,146.265823 631.277576,146.265823 C614.577577,146.265823 601.04,132.720773 601.04,116.012658 C601.04,99.3045438 614.577577,85.7594937 631.277576,85.7594937 Z M631.277576,89.7594937 C616.78721,89.7594937 605.04,101.513189 605.04,116.012658 C605.04,130.512128 616.78721,142.265823 631.277576,142.265823 C645.767942,142.265823 657.515152,130.512128 657.515152,116.012658 C657.515152,101.513189 645.767942,89.7594937 631.277576,89.7594937 Z M625.181161,102.8809 L631.282857,115.1239 L637.378997,102.895956 L644.128562,102.895445 L634.102999,121.644761 L634.086857,121.6349 L634.086926,133.166365 L628.468225,133.166365 L628.467857,121.6189 L628.455615,121.626672 L618.431857,102.8809 L625.181161,102.8809 Z M317.148247,25.9038708 L317.022743,25.9035311 C315.300229,25.9190317 313.440511,26.0654748 311.576233,26.3002992 C311.23668,26.3430692 310.908896,26.3873104 310.594994,26.4322675 C310.539363,27.4981546 310.258899,28.5648255 309.734467,29.5612937 L309.734467,29.5612937 L292.341191,62.6090268 L339.534679,113.711281 C342.452871,116.871155 348.666403,119.635751 353.065985,119.76873 L353.392472,119.773734 L488.66326,119.773734 C493.080491,119.773734 499.544461,116.954313 502.55009,113.71549 L502.55009,113.71549 L548.383191,64.3250268 L530.087945,29.5612937 C529.523815,28.4893969 529.241987,27.336267 529.216451,26.1906436 C528.204366,26.065618 527.215406,25.9801705 526.287418,25.9448055 C525.711572,25.9228604 525.171517,25.9209264 524.674389,25.9402238 C513.999511,26.3545982 442.260036,27.7712524 418.643711,27.7712524 C408.51889,27.7712524 393.790848,27.5629675 375.000423,27.1849958 C369.828007,27.080952 364.408388,26.9652551 358.637076,26.8365335 C356.535181,26.7896534 319.899177,25.9267912 317.148247,25.9038708 Z M420,38.8435805 C441.153484,38.8435805 458.301212,56.0007748 458.301212,77.164557 C458.301212,98.3283391 441.153484,115.485533 420,115.485533 C398.846516,115.485533 381.698788,98.3283391 381.698788,77.164557 C381.698788,56.0007748 398.846516,38.8435805 420,38.8435805 Z M420.028561,69.2803245 C417.811529,71.508445 412.222442,77.4542347 407.331706,83.7023378 C402.478135,89.9029594 397.963469,96.4012207 395.615609,99.8573698 C401.695323,106.395809 410.370417,110.485533 420,110.485533 C429.69904,110.485533 438.429772,106.336599 444.516045,99.7156032 C442.400373,96.294857 438.360267,90.0336627 433.424931,83.7090532 C429.278351,78.3952319 423.905106,73.0368094 420.028561,69.2803245 Z M396.40368,53.6518016 L396.093791,53.9674941 C390.278624,59.9663831 386.698788,68.1470988 386.698788,77.164557 C386.698788,83.2856189 388.348273,89.0211339 391.226719,93.9503975 C394.065542,87.4782302 400.842127,73.9364411 412.04674,62.5973891 C405.476886,57.8789381 399.082401,54.835854 396.40368,53.6518016 Z M443.610887,53.6666499 L443.560034,53.6889733 C440.833496,54.8986883 434.503,57.9274059 428.000456,62.5968466 C439.179034,73.9095939 445.950159,87.4144285 448.799697,93.9047758 C451.661987,88.9853997 453.301212,83.2665527 453.301212,77.164557 C453.301212,67.9954259 449.599939,59.691422 443.610887,53.6666499 Z M284.27227,12.2071924 C276.9971,8.04176863 264.157603,5.20300274 255.839127,5.97879554 C255.709639,5.98632403 255.451299,6.00258152 255.07273,6.02833949 C254.437095,6.07158833 253.698425,6.12588242 252.86535,6.19199094 C250.480441,6.381245 247.821051,6.62699919 244.956352,6.93535842 C236.776561,7.81583959 228.59923,9.01988381 220.983213,10.5936784 C215.87696,11.6488486 211.199758,12.8373775 207.048484,14.1642862 C201.326744,15.9931767 194.582018,18.6593898 187.032174,22.0207331 C183.566519,23.5637134 179.966604,25.2376398 176.261517,27.0227179 C169.089566,30.4781001 161.862675,34.1825287 154.943583,37.8870566 C152.521962,39.1836085 150.312291,40.3872886 148.359717,41.4670409 C147.677118,41.844511 147.075674,42.1793782 146.561024,42.4677624 C146.253512,42.6400763 146.044049,42.7581586 145.910375,42.8337109 C141.577694,45.2174849 136.418971,51.0863137 134.614722,55.6859781 L134.614722,55.6859781 L130.375346,66.4922578 C133.410784,65.3445357 136.830953,64.0659059 140.614269,62.6685387 C153.789575,57.8022405 168.654874,52.4946645 184.897148,46.9223606 C201.253471,41.3109297 215.001429,37.4412586 226.240397,35.0011215 C230.203847,34.1406011 233.577166,33.5204415 236.372723,33.1016403 C238.089075,32.8445145 239.252357,32.7107501 239.539023,32.7023586 C251.7619,30.6821319 268.009479,36.2624478 276.423564,45.3733778 L276.423564,45.3733778 L288.741191,58.7120268 L305.309831,27.2326465 C305.940972,26.0334228 305.532078,24.4927062 304.412572,23.745555 L304.262546,23.6526942 Z M583.895785,5.97216567 C575.664809,5.20300274 562.825313,8.04176863 555.550142,12.2071924 L555.550142,12.2071924 L535.559866,23.6526942 C534.327857,24.3580852 533.853999,25.9812826 534.512581,27.2326465 L534.512581,27.2326465 L551.989191,60.4400268 L566.654844,44.6371219 C575.06663,35.5727013 591.089879,30.5717685 604.192436,33.4437075 L604.648301,33.5470908 C605.587214,33.7508569 606.689771,33.9964496 607.948862,34.2844066 C611.536385,35.1048813 615.664526,36.1012339 620.276417,37.2777857 C633.438928,40.6357094 647.85212,44.76602 663.061555,49.7038226 C678.24296,54.6325251 691.387074,59.2321512 702.452506,63.3788852 C704.935456,64.3093626 707.199245,65.1744619 709.242517,65.9701278 L705.20769,55.6859781 C703.403441,51.0863137 698.244718,45.2174849 693.884142,42.8181302 C693.778363,42.7581586 693.5689,42.6400763 693.261389,42.4677624 C692.746738,42.1793782 692.145294,41.844511 691.462695,41.4670409 C689.510121,40.3872886 687.30045,39.1836085 684.878829,37.8870566 C677.959737,34.1825287 670.732846,30.4781001 663.560896,27.0227179 C659.855808,25.2376398 656.255894,23.5637134 652.790238,22.0207331 C645.240394,18.6593898 638.495668,15.9931767 632.773928,14.1642862 C628.622654,12.8373775 623.945452,11.6488486 618.839199,10.5936784 C611.223182,9.01988381 603.045851,7.81583959 594.86606,6.93535842 C592.001361,6.62699919 589.341971,6.381245 586.957062,6.19199094 C586.123987,6.12588242 585.385318,6.07158833 584.749682,6.02833949 C584.371113,6.00258152 584.112773,5.98632403 583.895785,5.97216567 Z M420,43.8435805 C413.816241,43.8435805 408.026087,45.5300721 403.063934,48.4684735 C406.87327,48.8468678 412.817086,50.4222425 420.024333,55.6625693 L420.374462,55.409445 C427.397054,50.3902372 433.192614,48.8522937 436.941768,48.4727792 C431.978577,45.531431 426.18625,43.8435805 420,43.8435805 Z" id="Xbox-One-Controller"></path>
            </g>
        </g>
    </g>
</svg>